<?xml version="1.0" encoding="iso-8859-1"?>
<!-- Generator: Adobe Illustrator 19.1.0, SVG Export Plug-In . SVG Version: 6.00 Build 0)  -->
<svg version="1.1" id="Capa_1" xmlns="http://www.w3.org/2000/svg" xmlns:xlink="http://www.w3.org/1999/xlink" x="0px" y="0px"
	 viewBox="0 0 462.15 462.15" style="enable-background:new 0 0 462.15 462.15;" xml:space="preserve">
<g>
	<path d="M376.29,201.715c47.34,0,85.86,38.52,85.86,85.87c0,47.34-38.52,85.86-85.86,85.86H107.73
		C48.33,373.445,0,325.115,0,265.725c0-59.4,48.33-107.73,107.73-107.73c17.53,0,34.62,4.23,49.99,12.3
		c13.03-47.86,56.47-81.59,107.04-81.59c61.2,0,110.99,49.8,110.99,111c0,0.67,0,1.34-0.01,2.01
		C375.92,201.715,376.1,201.715,376.29,201.715z M447.15,287.585c0-39.08-31.79-70.87-70.86-70.87c-2.51,0-5.11,0.14-7.72,0.43
		c-2.23,0.24-4.47-0.54-6.07-2.12c-1.61-1.59-2.41-3.81-2.2-6.05c0.3-3.16,0.45-6.27,0.45-9.27c0-52.93-43.06-96-95.99-96
		c-46.85,0-86.62,33.46-94.57,79.57c-0.43,2.49-2.09,4.6-4.41,5.6c-2.33,1.01-5,0.78-7.11-0.62c-15.15-9.98-32.76-15.26-50.94-15.26
		c-51.13,0-92.73,41.6-92.73,92.73c0,51.12,41.6,92.72,92.73,92.72h20.83v-36.27l-20.41-20.41c-2.2,0.84-4.57,1.32-7.06,1.32
		c-11.03,0-20-8.98-20-20c0-11.03,8.97-20,20-20s20,8.97,20,20c0,3.04-0.7,5.91-1.92,8.49l22.19,22.19c1.41,1.4,2.2,3.31,2.2,5.3
		v39.38h35.7v-71.73l-13.67-13.67c-2.05,0.72-4.25,1.13-6.55,1.13c-11.03,0-20-8.97-20-20c0-11.03,8.97-20,20-20
		c11.03,0,20,8.97,20,20c0,3.22-0.78,6.26-2.15,8.96l15.17,15.17c1.41,1.4,2.2,3.31,2.2,5.3v74.84h35.69v-158.1
		c-7.32-2.98-12.5-10.16-12.5-18.53c0-11.03,8.97-20,20-20s20,8.97,20,20c0,8.38-5.18,15.56-12.5,18.53v158.1h35.7v-109.7
		c0-1.99,0.79-3.9,2.19-5.3l15.16-15.17c-1.36-2.7-2.14-5.74-2.14-8.96c0-11.03,8.97-20,20-20c11.03,0,20,8.97,20,20s-8.97,20-20,20
		c-2.3,0-4.5-0.41-6.56-1.13l-13.65,13.67v106.59h35.7v-51.15c0-1.99,0.79-3.9,2.19-5.3l22.19-22.19c-1.22-2.58-1.92-5.45-1.92-8.49
		c0-11.03,8.97-20,20-20c11.02,0,20,8.97,20,20s-8.98,20-20,20c-2.49,0-4.87-0.48-7.07-1.31l-20.39,20.4v48.04h29.94
		C415.36,358.445,447.15,326.655,447.15,287.585z M378.81,271.315c0-2.76-2.25-5-5-5c-2.76,0-5,2.24-5,5s2.24,5,5,5
		C376.56,276.315,378.81,274.075,378.81,271.315z M320.86,219.315c0-2.76-2.25-5-5-5c-2.76,0-5,2.24-5,5c0,2.76,2.24,5,5,5
		C318.61,224.315,320.86,222.075,320.86,219.315z M242.45,181.815c0-2.76-2.24-5-5-5c-2.76,0-5,2.24-5,5c0,2.76,2.24,5,5,5
		C240.21,186.815,242.45,184.575,242.45,181.815z M164.04,254.175c0-2.76-2.24-5-5-5c-2.76,0-5,2.24-5,5c0,2.76,2.24,5,5,5
		C161.8,259.175,164.04,256.935,164.04,254.175z M106.09,283.085c0-2.76-2.24-5-5-5c-2.76,0-5,2.24-5,5c0,2.75,2.24,5,5,5
		C103.85,288.085,106.09,285.835,106.09,283.085z"/>
	<path style="fill:#3DD0F2;" d="M376.29,216.715c39.07,0,70.86,31.79,70.86,70.87c0,39.07-31.79,70.86-70.86,70.86h-29.94v-48.04
		l20.39-20.4c2.2,0.83,4.58,1.31,7.07,1.31c11.02,0,20-8.97,20-20s-8.98-20-20-20c-11.03,0-20,8.97-20,20c0,3.04,0.7,5.91,1.92,8.49
		l-22.19,22.19c-1.4,1.4-2.19,3.31-2.19,5.3v51.15h-35.7v-106.59l13.65-13.67c2.06,0.72,4.26,1.13,6.56,1.13c11.03,0,20-8.97,20-20
		s-8.97-20-20-20c-11.03,0-20,8.97-20,20c0,3.22,0.78,6.26,2.14,8.96l-15.16,15.17c-1.4,1.4-2.19,3.31-2.19,5.3v109.7h-35.7v-158.1
		c7.32-2.97,12.5-10.15,12.5-18.53c0-11.03-8.97-20-20-20s-20,8.97-20,20c0,8.37,5.18,15.55,12.5,18.53v158.1h-35.69v-74.84
		c0-1.99-0.79-3.9-2.2-5.3l-15.17-15.17c1.37-2.7,2.15-5.74,2.15-8.96c0-11.03-8.97-20-20-20c-11.03,0-20,8.97-20,20
		c0,11.03,8.97,20,20,20c2.3,0,4.5-0.41,6.55-1.13l13.67,13.67v71.73h-35.7v-39.38c0-1.99-0.79-3.9-2.2-5.3l-22.19-22.19
		c1.22-2.58,1.92-5.45,1.92-8.49c0-11.03-8.97-20-20-20s-20,8.97-20,20c0,11.02,8.97,20,20,20c2.49,0,4.86-0.48,7.06-1.32
		l20.41,20.41v36.27h-20.83c-51.13,0-92.73-41.6-92.73-92.72c0-51.13,41.6-92.73,92.73-92.73c18.18,0,35.79,5.28,50.94,15.26
		c2.11,1.4,4.78,1.63,7.11,0.62c2.32-1,3.98-3.11,4.41-5.6c7.95-46.11,47.72-79.57,94.57-79.57c52.93,0,95.99,43.07,95.99,96
		c0,3-0.15,6.11-0.45,9.27c-0.21,2.24,0.59,4.46,2.2,6.05c1.6,1.58,3.84,2.36,6.07,2.12
		C371.18,216.855,373.78,216.715,376.29,216.715z"/>
</g>
<g>
</g>
<g>
</g>
<g>
</g>
<g>
</g>
<g>
</g>
<g>
</g>
<g>
</g>
<g>
</g>
<g>
</g>
<g>
</g>
<g>
</g>
<g>
</g>
<g>
</g>
<g>
</g>
<g>
</g>
</svg>
